<mxfile host="app.diagrams.net" agent="Mozilla/5.0 (Windows NT 10.0; Win64; x64) AppleWebKit/537.36 (KHTML, like Gecko) Chrome/128.0.0.0 Safari/537.36" version="24.7.7">
  <diagram name="Página-1" id="jlGevDHFFBmqXCU59TP6">
    <mxGraphModel dx="1500" dy="746" grid="1" gridSize="10" guides="1" tooltips="1" connect="1" arrows="1" fold="1" page="1" pageScale="1" pageWidth="827" pageHeight="1169" math="0" shadow="0">
      <root>
        <mxCell id="0" />
        <mxCell id="1" parent="0" />
        <mxCell id="PUqXJprZPui0pHatvgok-24" style="edgeStyle=orthogonalEdgeStyle;rounded=0;orthogonalLoop=1;jettySize=auto;html=1;entryX=0;entryY=0.5;entryDx=0;entryDy=0;curved=1;endArrow=none;endFill=0;startArrow=none;startFill=0;" parent="1" source="PUqXJprZPui0pHatvgok-7" target="PUqXJprZPui0pHatvgok-19" edge="1">
          <mxGeometry relative="1" as="geometry">
            <mxPoint x="50" y="40" as="sourcePoint" />
            <Array as="points">
              <mxPoint x="120" y="40" />
            </Array>
          </mxGeometry>
        </mxCell>
        <mxCell id="PUqXJprZPui0pHatvgok-47" style="edgeStyle=orthogonalEdgeStyle;rounded=0;orthogonalLoop=1;jettySize=auto;html=1;entryX=0;entryY=0.5;entryDx=0;entryDy=0;curved=1;startArrow=none;startFill=0;endArrow=none;endFill=0;" parent="1" source="PUqXJprZPui0pHatvgok-7" target="PUqXJprZPui0pHatvgok-16" edge="1">
          <mxGeometry relative="1" as="geometry">
            <Array as="points">
              <mxPoint x="80" y="110" />
              <mxPoint x="80" y="420" />
            </Array>
          </mxGeometry>
        </mxCell>
        <mxCell id="PUqXJprZPui0pHatvgok-7" value="Cliente" style="shape=umlActor;verticalLabelPosition=bottom;verticalAlign=top;html=1;" parent="1" vertex="1">
          <mxGeometry y="40" width="40" height="80" as="geometry" />
        </mxCell>
        <mxCell id="PUqXJprZPui0pHatvgok-12" value="Restaurante" style="shape=umlActor;verticalLabelPosition=bottom;verticalAlign=top;html=1;" parent="1" vertex="1">
          <mxGeometry x="440" y="40" width="40" height="80" as="geometry" />
        </mxCell>
        <mxCell id="PUqXJprZPui0pHatvgok-14" value="Sistema" style="shape=umlFrame;whiteSpace=wrap;html=1;pointerEvents=0;" parent="1" vertex="1">
          <mxGeometry x="80" width="320" height="640" as="geometry" />
        </mxCell>
        <mxCell id="PUqXJprZPui0pHatvgok-34" value="&amp;lt;&amp;lt;include&amp;gt;&amp;gt;" style="edgeStyle=orthogonalEdgeStyle;rounded=0;orthogonalLoop=1;jettySize=auto;html=1;exitX=0.5;exitY=0;exitDx=0;exitDy=0;entryX=0.5;entryY=1;entryDx=0;entryDy=0;curved=1;dashed=1;" parent="1" source="PUqXJprZPui0pHatvgok-15" target="PUqXJprZPui0pHatvgok-20" edge="1">
          <mxGeometry relative="1" as="geometry">
            <mxPoint as="offset" />
          </mxGeometry>
        </mxCell>
        <mxCell id="PUqXJprZPui0pHatvgok-35" style="edgeStyle=orthogonalEdgeStyle;rounded=0;orthogonalLoop=1;jettySize=auto;html=1;exitX=0;exitY=0.5;exitDx=0;exitDy=0;curved=1;endArrow=none;endFill=0;startArrow=none;startFill=0;" parent="1" source="PUqXJprZPui0pHatvgok-15" target="PUqXJprZPui0pHatvgok-7" edge="1">
          <mxGeometry relative="1" as="geometry">
            <mxPoint x="50" y="70" as="targetPoint" />
            <Array as="points">
              <mxPoint x="90" y="300" />
              <mxPoint x="90" y="90" />
            </Array>
          </mxGeometry>
        </mxCell>
        <mxCell id="XceoHx5Ut_fv7BQ_l9Iq-62" value="&amp;lt;&amp;lt;include&amp;gt;&amp;gt;" style="edgeStyle=orthogonalEdgeStyle;rounded=0;orthogonalLoop=1;jettySize=auto;html=1;exitX=1;exitY=1;exitDx=0;exitDy=0;entryX=0.5;entryY=0;entryDx=0;entryDy=0;curved=1;endArrow=none;endFill=0;startArrow=classic;startFill=1;dashed=1;" edge="1" parent="1" source="PUqXJprZPui0pHatvgok-15" target="XceoHx5Ut_fv7BQ_l9Iq-56">
          <mxGeometry x="-0.0003" relative="1" as="geometry">
            <Array as="points">
              <mxPoint x="262" y="390" />
              <mxPoint x="320" y="390" />
              <mxPoint x="320" y="450" />
              <mxPoint x="220" y="450" />
            </Array>
            <mxPoint as="offset" />
          </mxGeometry>
        </mxCell>
        <mxCell id="PUqXJprZPui0pHatvgok-15" value="Fazer Pedido" style="ellipse;whiteSpace=wrap;html=1;" parent="1" vertex="1">
          <mxGeometry x="160" y="280" width="120" height="40" as="geometry" />
        </mxCell>
        <mxCell id="PUqXJprZPui0pHatvgok-16" value="Cancelar Pedido" style="ellipse;whiteSpace=wrap;html=1;" parent="1" vertex="1">
          <mxGeometry x="160" y="400" width="120" height="40" as="geometry" />
        </mxCell>
        <mxCell id="PUqXJprZPui0pHatvgok-29" style="edgeStyle=orthogonalEdgeStyle;rounded=0;orthogonalLoop=1;jettySize=auto;html=1;exitX=0;exitY=0.5;exitDx=0;exitDy=0;curved=1;endArrow=none;endFill=0;startArrow=none;startFill=0;" parent="1" source="PUqXJprZPui0pHatvgok-18" target="PUqXJprZPui0pHatvgok-7" edge="1">
          <mxGeometry relative="1" as="geometry">
            <mxPoint x="50" y="50" as="targetPoint" />
            <Array as="points">
              <mxPoint x="110" y="140" />
              <mxPoint x="110" y="50" />
            </Array>
          </mxGeometry>
        </mxCell>
        <mxCell id="PUqXJprZPui0pHatvgok-18" value="Buscar Restaurante" style="ellipse;whiteSpace=wrap;html=1;" parent="1" vertex="1">
          <mxGeometry x="160" y="120" width="120" height="40" as="geometry" />
        </mxCell>
        <mxCell id="PUqXJprZPui0pHatvgok-28" value="&amp;lt;&amp;lt;include&amp;gt;&amp;gt;" style="edgeStyle=orthogonalEdgeStyle;rounded=0;orthogonalLoop=1;jettySize=auto;html=1;curved=1;endArrow=classic;endFill=1;dashed=1;exitX=0.5;exitY=0;exitDx=0;exitDy=0;entryX=0.5;entryY=1;entryDx=0;entryDy=0;" parent="1" source="PUqXJprZPui0pHatvgok-18" target="PUqXJprZPui0pHatvgok-19" edge="1">
          <mxGeometry relative="1" as="geometry">
            <mxPoint x="310" y="-90" as="targetPoint" />
            <Array as="points" />
          </mxGeometry>
        </mxCell>
        <mxCell id="PUqXJprZPui0pHatvgok-19" value="Login" style="ellipse;whiteSpace=wrap;html=1;" parent="1" vertex="1">
          <mxGeometry x="160" y="40" width="120" height="40" as="geometry" />
        </mxCell>
        <mxCell id="PUqXJprZPui0pHatvgok-31" value="&amp;lt;&amp;lt;include&amp;gt;&amp;gt;" style="edgeStyle=orthogonalEdgeStyle;rounded=0;orthogonalLoop=1;jettySize=auto;html=1;exitX=0.5;exitY=0;exitDx=0;exitDy=0;entryX=0.5;entryY=1;entryDx=0;entryDy=0;dashed=1;curved=1;" parent="1" source="PUqXJprZPui0pHatvgok-20" target="PUqXJprZPui0pHatvgok-18" edge="1">
          <mxGeometry relative="1" as="geometry">
            <Array as="points">
              <mxPoint x="220" y="200" />
              <mxPoint x="220" y="200" />
            </Array>
          </mxGeometry>
        </mxCell>
        <mxCell id="PUqXJprZPui0pHatvgok-32" style="edgeStyle=orthogonalEdgeStyle;rounded=0;orthogonalLoop=1;jettySize=auto;html=1;exitX=0;exitY=0.5;exitDx=0;exitDy=0;curved=1;endArrow=none;endFill=0;startArrow=none;startFill=0;" parent="1" source="PUqXJprZPui0pHatvgok-20" target="PUqXJprZPui0pHatvgok-7" edge="1">
          <mxGeometry relative="1" as="geometry">
            <mxPoint x="50" y="60" as="targetPoint" />
            <Array as="points">
              <mxPoint x="100" y="220" />
              <mxPoint x="100" y="70" />
            </Array>
          </mxGeometry>
        </mxCell>
        <mxCell id="XceoHx5Ut_fv7BQ_l9Iq-9" style="edgeStyle=orthogonalEdgeStyle;rounded=0;orthogonalLoop=1;jettySize=auto;html=1;exitX=1;exitY=0.5;exitDx=0;exitDy=0;curved=1;endArrow=none;endFill=0;" edge="1" parent="1" source="PUqXJprZPui0pHatvgok-20" target="PUqXJprZPui0pHatvgok-12">
          <mxGeometry relative="1" as="geometry">
            <mxPoint x="590.800048828125" as="targetPoint" />
            <Array as="points">
              <mxPoint x="360" y="220" />
              <mxPoint x="360" y="80" />
            </Array>
          </mxGeometry>
        </mxCell>
        <mxCell id="PUqXJprZPui0pHatvgok-20" value="Visualizar Cardápio" style="ellipse;whiteSpace=wrap;html=1;" parent="1" vertex="1">
          <mxGeometry x="160" y="200" width="120" height="40" as="geometry" />
        </mxCell>
        <mxCell id="PUqXJprZPui0pHatvgok-38" style="edgeStyle=orthogonalEdgeStyle;rounded=0;orthogonalLoop=1;jettySize=auto;html=1;exitX=0;exitY=0.5;exitDx=0;exitDy=0;curved=1;endArrow=none;endFill=0;startArrow=none;startFill=0;entryX=1;entryY=1;entryDx=0;entryDy=0;entryPerimeter=0;" parent="1" source="PUqXJprZPui0pHatvgok-22" target="PUqXJprZPui0pHatvgok-7" edge="1">
          <mxGeometry relative="1" as="geometry">
            <mxPoint x="50" y="80" as="targetPoint" />
            <Array as="points">
              <mxPoint x="60" y="580" />
              <mxPoint x="60" y="120" />
            </Array>
          </mxGeometry>
        </mxCell>
        <mxCell id="XceoHx5Ut_fv7BQ_l9Iq-63" value="&amp;lt;&amp;lt;Include&amp;gt;&amp;gt;" style="edgeStyle=orthogonalEdgeStyle;rounded=0;orthogonalLoop=1;jettySize=auto;html=1;entryX=0.5;entryY=1;entryDx=0;entryDy=0;dashed=1;" edge="1" parent="1" source="PUqXJprZPui0pHatvgok-22" target="XceoHx5Ut_fv7BQ_l9Iq-56">
          <mxGeometry relative="1" as="geometry" />
        </mxCell>
        <mxCell id="PUqXJprZPui0pHatvgok-22" value="Acompanhar Pedido" style="ellipse;whiteSpace=wrap;html=1;" parent="1" vertex="1">
          <mxGeometry x="160" y="560" width="120" height="40" as="geometry" />
        </mxCell>
        <mxCell id="PUqXJprZPui0pHatvgok-46" value="&amp;lt;&amp;lt;extend&amp;gt;&amp;gt;" style="edgeStyle=orthogonalEdgeStyle;rounded=0;orthogonalLoop=1;jettySize=auto;html=1;exitX=0.5;exitY=0;exitDx=0;exitDy=0;entryX=0;entryY=1;entryDx=0;entryDy=0;curved=1;dashed=1;" parent="1" source="PUqXJprZPui0pHatvgok-16" target="PUqXJprZPui0pHatvgok-15" edge="1">
          <mxGeometry x="0.0057" relative="1" as="geometry">
            <mxPoint as="offset" />
          </mxGeometry>
        </mxCell>
        <mxCell id="XceoHx5Ut_fv7BQ_l9Iq-8" style="edgeStyle=orthogonalEdgeStyle;rounded=0;orthogonalLoop=1;jettySize=auto;html=1;exitX=1;exitY=0.5;exitDx=0;exitDy=0;curved=1;endArrow=none;endFill=0;entryX=0;entryY=1;entryDx=0;entryDy=0;entryPerimeter=0;" edge="1" parent="1" source="PUqXJprZPui0pHatvgok-22" target="PUqXJprZPui0pHatvgok-12">
          <mxGeometry relative="1" as="geometry">
            <mxPoint x="450" y="80" as="targetPoint" />
            <Array as="points">
              <mxPoint x="370" y="580" />
              <mxPoint x="370" y="120" />
            </Array>
          </mxGeometry>
        </mxCell>
        <mxCell id="XceoHx5Ut_fv7BQ_l9Iq-85" style="edgeStyle=orthogonalEdgeStyle;rounded=0;orthogonalLoop=1;jettySize=auto;html=1;endArrow=block;endFill=0;entryX=0.501;entryY=1.041;entryDx=0;entryDy=0;entryPerimeter=0;" edge="1" parent="1" source="XceoHx5Ut_fv7BQ_l9Iq-10" target="XceoHx5Ut_fv7BQ_l9Iq-51">
          <mxGeometry relative="1" as="geometry">
            <mxPoint x="619" y="470" as="targetPoint" />
            <Array as="points">
              <mxPoint x="620" y="600" />
            </Array>
          </mxGeometry>
        </mxCell>
        <mxCell id="XceoHx5Ut_fv7BQ_l9Iq-10" value="Cliente" style="swimlane;fontStyle=1;align=center;verticalAlign=top;childLayout=stackLayout;horizontal=1;startSize=26;horizontalStack=0;resizeParent=1;resizeParentMax=0;resizeLast=0;collapsible=1;marginBottom=0;whiteSpace=wrap;html=1;" vertex="1" parent="1">
          <mxGeometry x="800" y="520" width="200" height="138" as="geometry" />
        </mxCell>
        <mxCell id="XceoHx5Ut_fv7BQ_l9Iq-23" value="+ Pedidos: List&amp;lt;Pedido&amp;gt;" style="text;strokeColor=none;fillColor=none;align=left;verticalAlign=top;spacingLeft=4;spacingRight=4;overflow=hidden;rotatable=0;points=[[0,0.5],[1,0.5]];portConstraint=eastwest;whiteSpace=wrap;html=1;" vertex="1" parent="XceoHx5Ut_fv7BQ_l9Iq-10">
          <mxGeometry y="26" width="200" height="26" as="geometry" />
        </mxCell>
        <mxCell id="XceoHx5Ut_fv7BQ_l9Iq-12" value="" style="line;strokeWidth=1;fillColor=none;align=left;verticalAlign=middle;spacingTop=-1;spacingLeft=3;spacingRight=3;rotatable=0;labelPosition=right;points=[];portConstraint=eastwest;strokeColor=inherit;" vertex="1" parent="XceoHx5Ut_fv7BQ_l9Iq-10">
          <mxGeometry y="52" width="200" height="8" as="geometry" />
        </mxCell>
        <mxCell id="XceoHx5Ut_fv7BQ_l9Iq-13" value="+ BuscarRestaurante()" style="text;strokeColor=none;fillColor=none;align=left;verticalAlign=top;spacingLeft=4;spacingRight=4;overflow=hidden;rotatable=0;points=[[0,0.5],[1,0.5]];portConstraint=eastwest;whiteSpace=wrap;html=1;" vertex="1" parent="XceoHx5Ut_fv7BQ_l9Iq-10">
          <mxGeometry y="60" width="200" height="26" as="geometry" />
        </mxCell>
        <mxCell id="XceoHx5Ut_fv7BQ_l9Iq-54" value="+ FazerPedido()" style="text;strokeColor=none;fillColor=none;align=left;verticalAlign=top;spacingLeft=4;spacingRight=4;overflow=hidden;rotatable=0;points=[[0,0.5],[1,0.5]];portConstraint=eastwest;whiteSpace=wrap;html=1;" vertex="1" parent="XceoHx5Ut_fv7BQ_l9Iq-10">
          <mxGeometry y="86" width="200" height="26" as="geometry" />
        </mxCell>
        <mxCell id="XceoHx5Ut_fv7BQ_l9Iq-55" value="+ CancelarPedido()" style="text;strokeColor=none;fillColor=none;align=left;verticalAlign=top;spacingLeft=4;spacingRight=4;overflow=hidden;rotatable=0;points=[[0,0.5],[1,0.5]];portConstraint=eastwest;whiteSpace=wrap;html=1;" vertex="1" parent="XceoHx5Ut_fv7BQ_l9Iq-10">
          <mxGeometry y="112" width="200" height="26" as="geometry" />
        </mxCell>
        <mxCell id="XceoHx5Ut_fv7BQ_l9Iq-26" value="Endereco" style="swimlane;fontStyle=0;childLayout=stackLayout;horizontal=1;startSize=26;fillColor=none;horizontalStack=0;resizeParent=1;resizeParentMax=0;resizeLast=0;collapsible=1;marginBottom=0;whiteSpace=wrap;html=1;" vertex="1" parent="1">
          <mxGeometry x="800" y="30" width="200" height="130" as="geometry" />
        </mxCell>
        <mxCell id="XceoHx5Ut_fv7BQ_l9Iq-28" value="+ Cidade: string" style="text;strokeColor=none;fillColor=none;align=left;verticalAlign=top;spacingLeft=4;spacingRight=4;overflow=hidden;rotatable=0;points=[[0,0.5],[1,0.5]];portConstraint=eastwest;whiteSpace=wrap;html=1;" vertex="1" parent="XceoHx5Ut_fv7BQ_l9Iq-26">
          <mxGeometry y="26" width="200" height="26" as="geometry" />
        </mxCell>
        <mxCell id="XceoHx5Ut_fv7BQ_l9Iq-29" value="+ Bairro: string" style="text;strokeColor=none;fillColor=none;align=left;verticalAlign=top;spacingLeft=4;spacingRight=4;overflow=hidden;rotatable=0;points=[[0,0.5],[1,0.5]];portConstraint=eastwest;whiteSpace=wrap;html=1;" vertex="1" parent="XceoHx5Ut_fv7BQ_l9Iq-26">
          <mxGeometry y="52" width="200" height="26" as="geometry" />
        </mxCell>
        <mxCell id="XceoHx5Ut_fv7BQ_l9Iq-30" value="+ Logradouro: string" style="text;strokeColor=none;fillColor=none;align=left;verticalAlign=top;spacingLeft=4;spacingRight=4;overflow=hidden;rotatable=0;points=[[0,0.5],[1,0.5]];portConstraint=eastwest;whiteSpace=wrap;html=1;" vertex="1" parent="XceoHx5Ut_fv7BQ_l9Iq-26">
          <mxGeometry y="78" width="200" height="26" as="geometry" />
        </mxCell>
        <mxCell id="XceoHx5Ut_fv7BQ_l9Iq-32" value="+ Numero: string" style="text;strokeColor=none;fillColor=none;align=left;verticalAlign=top;spacingLeft=4;spacingRight=4;overflow=hidden;rotatable=0;points=[[0,0.5],[1,0.5]];portConstraint=eastwest;whiteSpace=wrap;html=1;" vertex="1" parent="XceoHx5Ut_fv7BQ_l9Iq-26">
          <mxGeometry y="104" width="200" height="26" as="geometry" />
        </mxCell>
        <mxCell id="XceoHx5Ut_fv7BQ_l9Iq-34" value="Usuario" style="swimlane;fontStyle=1;align=center;verticalAlign=top;childLayout=stackLayout;horizontal=1;startSize=26;horizontalStack=0;resizeParent=1;resizeParentMax=0;resizeLast=0;collapsible=1;marginBottom=0;whiteSpace=wrap;html=1;" vertex="1" parent="1">
          <mxGeometry x="520" y="240" width="199" height="216" as="geometry" />
        </mxCell>
        <mxCell id="XceoHx5Ut_fv7BQ_l9Iq-73" value="+ Nome: string" style="text;strokeColor=none;fillColor=none;align=left;verticalAlign=top;spacingLeft=4;spacingRight=4;overflow=hidden;rotatable=0;points=[[0,0.5],[1,0.5]];portConstraint=eastwest;whiteSpace=wrap;html=1;" vertex="1" parent="XceoHx5Ut_fv7BQ_l9Iq-34">
          <mxGeometry y="26" width="199" height="26" as="geometry" />
        </mxCell>
        <mxCell id="XceoHx5Ut_fv7BQ_l9Iq-24" value="+ Email: string" style="text;strokeColor=none;fillColor=none;align=left;verticalAlign=top;spacingLeft=4;spacingRight=4;overflow=hidden;rotatable=0;points=[[0,0.5],[1,0.5]];portConstraint=eastwest;whiteSpace=wrap;html=1;" vertex="1" parent="XceoHx5Ut_fv7BQ_l9Iq-34">
          <mxGeometry y="52" width="199" height="26" as="geometry" />
        </mxCell>
        <mxCell id="XceoHx5Ut_fv7BQ_l9Iq-25" value="+ Senha: string" style="text;strokeColor=none;fillColor=none;align=left;verticalAlign=top;spacingLeft=4;spacingRight=4;overflow=hidden;rotatable=0;points=[[0,0.5],[1,0.5]];portConstraint=eastwest;whiteSpace=wrap;html=1;" vertex="1" parent="XceoHx5Ut_fv7BQ_l9Iq-34">
          <mxGeometry y="78" width="199" height="26" as="geometry" />
        </mxCell>
        <mxCell id="XceoHx5Ut_fv7BQ_l9Iq-120" value="+ Telefone: string" style="text;strokeColor=none;fillColor=none;align=left;verticalAlign=top;spacingLeft=4;spacingRight=4;overflow=hidden;rotatable=0;points=[[0,0.5],[1,0.5]];portConstraint=eastwest;whiteSpace=wrap;html=1;" vertex="1" parent="XceoHx5Ut_fv7BQ_l9Iq-34">
          <mxGeometry y="104" width="199" height="26" as="geometry" />
        </mxCell>
        <mxCell id="XceoHx5Ut_fv7BQ_l9Iq-36" value="" style="line;strokeWidth=1;fillColor=none;align=left;verticalAlign=middle;spacingTop=-1;spacingLeft=3;spacingRight=3;rotatable=0;labelPosition=right;points=[];portConstraint=eastwest;strokeColor=inherit;" vertex="1" parent="XceoHx5Ut_fv7BQ_l9Iq-34">
          <mxGeometry y="130" width="199" height="8" as="geometry" />
        </mxCell>
        <mxCell id="XceoHx5Ut_fv7BQ_l9Iq-37" value="+ Login()" style="text;strokeColor=none;fillColor=none;align=left;verticalAlign=top;spacingLeft=4;spacingRight=4;overflow=hidden;rotatable=0;points=[[0,0.5],[1,0.5]];portConstraint=eastwest;whiteSpace=wrap;html=1;" vertex="1" parent="XceoHx5Ut_fv7BQ_l9Iq-34">
          <mxGeometry y="138" width="199" height="26" as="geometry" />
        </mxCell>
        <mxCell id="XceoHx5Ut_fv7BQ_l9Iq-47" value="+ VisualizarCardapio()" style="text;strokeColor=none;fillColor=none;align=left;verticalAlign=top;spacingLeft=4;spacingRight=4;overflow=hidden;rotatable=0;points=[[0,0.5],[1,0.5]];portConstraint=eastwest;whiteSpace=wrap;html=1;" vertex="1" parent="XceoHx5Ut_fv7BQ_l9Iq-34">
          <mxGeometry y="164" width="199" height="26" as="geometry" />
        </mxCell>
        <mxCell id="XceoHx5Ut_fv7BQ_l9Iq-51" value="+ AcompanharPedido()" style="text;strokeColor=none;fillColor=none;align=left;verticalAlign=top;spacingLeft=4;spacingRight=4;overflow=hidden;rotatable=0;points=[[0,0.5],[1,0.5]];portConstraint=eastwest;whiteSpace=wrap;html=1;" vertex="1" parent="XceoHx5Ut_fv7BQ_l9Iq-34">
          <mxGeometry y="190" width="199" height="26" as="geometry" />
        </mxCell>
        <mxCell id="XceoHx5Ut_fv7BQ_l9Iq-40" value="Restaurante" style="swimlane;fontStyle=1;align=center;verticalAlign=top;childLayout=stackLayout;horizontal=1;startSize=26;horizontalStack=0;resizeParent=1;resizeParentMax=0;resizeLast=0;collapsible=1;marginBottom=0;whiteSpace=wrap;html=1;" vertex="1" parent="1">
          <mxGeometry x="800" y="400" width="200" height="78" as="geometry" />
        </mxCell>
        <mxCell id="XceoHx5Ut_fv7BQ_l9Iq-45" value="+ Cardapio: List&amp;lt;Pedido&amp;gt;" style="text;strokeColor=none;fillColor=none;align=left;verticalAlign=top;spacingLeft=4;spacingRight=4;overflow=hidden;rotatable=0;points=[[0,0.5],[1,0.5]];portConstraint=eastwest;whiteSpace=wrap;html=1;" vertex="1" parent="XceoHx5Ut_fv7BQ_l9Iq-40">
          <mxGeometry y="26" width="200" height="26" as="geometry" />
        </mxCell>
        <mxCell id="XceoHx5Ut_fv7BQ_l9Iq-181" value="+ TipoComida: string" style="text;strokeColor=none;fillColor=none;align=left;verticalAlign=top;spacingLeft=4;spacingRight=4;overflow=hidden;rotatable=0;points=[[0,0.5],[1,0.5]];portConstraint=eastwest;whiteSpace=wrap;html=1;" vertex="1" parent="XceoHx5Ut_fv7BQ_l9Iq-40">
          <mxGeometry y="52" width="200" height="26" as="geometry" />
        </mxCell>
        <mxCell id="XceoHx5Ut_fv7BQ_l9Iq-57" style="edgeStyle=orthogonalEdgeStyle;rounded=0;orthogonalLoop=1;jettySize=auto;html=1;exitX=1;exitY=0.5;exitDx=0;exitDy=0;curved=1;endArrow=none;endFill=0;startArrow=none;startFill=0;" edge="1" parent="1" source="XceoHx5Ut_fv7BQ_l9Iq-56" target="PUqXJprZPui0pHatvgok-12">
          <mxGeometry relative="1" as="geometry">
            <mxPoint x="430" y="80" as="targetPoint" />
            <Array as="points">
              <mxPoint x="360" y="500" />
              <mxPoint x="360" y="80" />
            </Array>
          </mxGeometry>
        </mxCell>
        <mxCell id="XceoHx5Ut_fv7BQ_l9Iq-56" value="Enviar Pedido" style="ellipse;whiteSpace=wrap;html=1;" vertex="1" parent="1">
          <mxGeometry x="160" y="480" width="120" height="40" as="geometry" />
        </mxCell>
        <mxCell id="XceoHx5Ut_fv7BQ_l9Iq-68" value="Pedido" style="swimlane;fontStyle=1;align=center;verticalAlign=top;childLayout=stackLayout;horizontal=1;startSize=26;horizontalStack=0;resizeParent=1;resizeParentMax=0;resizeLast=0;collapsible=1;marginBottom=0;whiteSpace=wrap;html=1;" vertex="1" parent="1">
          <mxGeometry x="1082" y="520" width="200" height="104" as="geometry" />
        </mxCell>
        <mxCell id="XceoHx5Ut_fv7BQ_l9Iq-69" value="+ NumeroPedido: int" style="text;strokeColor=none;fillColor=none;align=left;verticalAlign=top;spacingLeft=4;spacingRight=4;overflow=hidden;rotatable=0;points=[[0,0.5],[1,0.5]];portConstraint=eastwest;whiteSpace=wrap;html=1;" vertex="1" parent="XceoHx5Ut_fv7BQ_l9Iq-68">
          <mxGeometry y="26" width="200" height="26" as="geometry" />
        </mxCell>
        <mxCell id="XceoHx5Ut_fv7BQ_l9Iq-72" value="+ NomePedido: string" style="text;strokeColor=none;fillColor=none;align=left;verticalAlign=top;spacingLeft=4;spacingRight=4;overflow=hidden;rotatable=0;points=[[0,0.5],[1,0.5]];portConstraint=eastwest;whiteSpace=wrap;html=1;" vertex="1" parent="XceoHx5Ut_fv7BQ_l9Iq-68">
          <mxGeometry y="52" width="200" height="26" as="geometry" />
        </mxCell>
        <mxCell id="XceoHx5Ut_fv7BQ_l9Iq-180" value="+ DataPedido: Date()" style="text;strokeColor=none;fillColor=none;align=left;verticalAlign=top;spacingLeft=4;spacingRight=4;overflow=hidden;rotatable=0;points=[[0,0.5],[1,0.5]];portConstraint=eastwest;whiteSpace=wrap;html=1;" vertex="1" parent="XceoHx5Ut_fv7BQ_l9Iq-68">
          <mxGeometry y="78" width="200" height="26" as="geometry" />
        </mxCell>
        <mxCell id="XceoHx5Ut_fv7BQ_l9Iq-81" style="edgeStyle=orthogonalEdgeStyle;rounded=0;orthogonalLoop=1;jettySize=auto;html=1;exitX=0;exitY=0.5;exitDx=0;exitDy=0;entryX=0.5;entryY=0;entryDx=0;entryDy=0;endArrow=diamondThin;endFill=1;" edge="1" parent="1" source="XceoHx5Ut_fv7BQ_l9Iq-29" target="XceoHx5Ut_fv7BQ_l9Iq-34">
          <mxGeometry relative="1" as="geometry" />
        </mxCell>
        <mxCell id="XceoHx5Ut_fv7BQ_l9Iq-82" value="1" style="text;html=1;align=center;verticalAlign=middle;resizable=0;points=[];autosize=1;strokeColor=none;fillColor=none;" vertex="1" parent="1">
          <mxGeometry x="770" y="65" width="30" height="30" as="geometry" />
        </mxCell>
        <mxCell id="XceoHx5Ut_fv7BQ_l9Iq-83" value="N" style="text;html=1;align=center;verticalAlign=middle;resizable=0;points=[];autosize=1;strokeColor=none;fillColor=none;" vertex="1" parent="1">
          <mxGeometry x="619" y="210" width="30" height="30" as="geometry" />
        </mxCell>
        <mxCell id="XceoHx5Ut_fv7BQ_l9Iq-86" style="edgeStyle=orthogonalEdgeStyle;rounded=0;orthogonalLoop=1;jettySize=auto;html=1;entryX=0.5;entryY=0;entryDx=0;entryDy=0;endArrow=none;endFill=0;startArrow=block;startFill=0;" edge="1" parent="1" source="XceoHx5Ut_fv7BQ_l9Iq-25" target="XceoHx5Ut_fv7BQ_l9Iq-40">
          <mxGeometry relative="1" as="geometry" />
        </mxCell>
        <mxCell id="XceoHx5Ut_fv7BQ_l9Iq-88" style="edgeStyle=orthogonalEdgeStyle;rounded=0;orthogonalLoop=1;jettySize=auto;html=1;exitX=1;exitY=0.5;exitDx=0;exitDy=0;endArrow=diamondThin;endFill=0;startSize=6;endSize=9;" edge="1" parent="1" source="XceoHx5Ut_fv7BQ_l9Iq-23" target="XceoHx5Ut_fv7BQ_l9Iq-68">
          <mxGeometry relative="1" as="geometry">
            <Array as="points">
              <mxPoint x="1000" y="560" />
            </Array>
          </mxGeometry>
        </mxCell>
        <mxCell id="XceoHx5Ut_fv7BQ_l9Iq-89" value="N" style="text;html=1;align=center;verticalAlign=middle;resizable=0;points=[];autosize=1;strokeColor=none;fillColor=none;" vertex="1" parent="1">
          <mxGeometry x="719" y="305" width="30" height="30" as="geometry" />
        </mxCell>
        <mxCell id="XceoHx5Ut_fv7BQ_l9Iq-91" value="1" style="text;html=1;align=center;verticalAlign=middle;resizable=0;points=[];autosize=1;strokeColor=none;fillColor=none;" vertex="1" parent="1">
          <mxGeometry x="619" y="428" width="30" height="30" as="geometry" />
        </mxCell>
        <mxCell id="XceoHx5Ut_fv7BQ_l9Iq-92" value="1" style="text;html=1;align=center;verticalAlign=middle;resizable=0;points=[];autosize=1;strokeColor=none;fillColor=none;" vertex="1" parent="1">
          <mxGeometry x="729" y="570" width="30" height="30" as="geometry" />
        </mxCell>
        <mxCell id="XceoHx5Ut_fv7BQ_l9Iq-93" value="N" style="text;html=1;align=center;verticalAlign=middle;resizable=0;points=[];autosize=1;strokeColor=none;fillColor=none;" vertex="1" parent="1">
          <mxGeometry x="1000" y="530" width="30" height="30" as="geometry" />
        </mxCell>
        <mxCell id="XceoHx5Ut_fv7BQ_l9Iq-94" value="N" style="text;html=1;align=center;verticalAlign=middle;resizable=0;points=[];autosize=1;strokeColor=none;fillColor=none;" vertex="1" parent="1">
          <mxGeometry x="1052" y="530" width="30" height="30" as="geometry" />
        </mxCell>
        <mxCell id="XceoHx5Ut_fv7BQ_l9Iq-95" value="1" style="text;html=1;align=center;verticalAlign=middle;resizable=0;points=[];autosize=1;strokeColor=none;fillColor=none;" vertex="1" parent="1">
          <mxGeometry x="1000" y="410" width="30" height="30" as="geometry" />
        </mxCell>
        <mxCell id="XceoHx5Ut_fv7BQ_l9Iq-96" value="N" style="text;html=1;align=center;verticalAlign=middle;resizable=0;points=[];autosize=1;strokeColor=none;fillColor=none;" vertex="1" parent="1">
          <mxGeometry x="1191" y="492" width="30" height="30" as="geometry" />
        </mxCell>
        <mxCell id="XceoHx5Ut_fv7BQ_l9Iq-150" value="" style="group;movable=1;resizable=1;rotatable=1;deletable=1;editable=1;locked=0;connectable=1;" vertex="1" connectable="0" parent="1">
          <mxGeometry x="80" y="880" width="240" height="180" as="geometry" />
        </mxCell>
        <mxCell id="XceoHx5Ut_fv7BQ_l9Iq-97" value="Endereco" style="shape=table;startSize=30;container=1;collapsible=1;childLayout=tableLayout;fixedRows=1;rowLines=0;fontStyle=1;align=center;resizeLast=1;html=1;whiteSpace=wrap;" vertex="1" parent="XceoHx5Ut_fv7BQ_l9Iq-150">
          <mxGeometry width="240" height="180" as="geometry" />
        </mxCell>
        <mxCell id="XceoHx5Ut_fv7BQ_l9Iq-98" value="" style="shape=tableRow;horizontal=0;startSize=0;swimlaneHead=0;swimlaneBody=0;fillColor=none;collapsible=0;dropTarget=0;points=[[0,0.5],[1,0.5]];portConstraint=eastwest;top=0;left=0;right=0;bottom=0;html=1;" vertex="1" parent="XceoHx5Ut_fv7BQ_l9Iq-97">
          <mxGeometry y="30" width="240" height="30" as="geometry" />
        </mxCell>
        <mxCell id="XceoHx5Ut_fv7BQ_l9Iq-99" value="PK" style="shape=partialRectangle;connectable=0;fillColor=none;top=0;left=0;bottom=0;right=0;fontStyle=1;overflow=hidden;html=1;whiteSpace=wrap;" vertex="1" parent="XceoHx5Ut_fv7BQ_l9Iq-98">
          <mxGeometry width="60" height="30" as="geometry">
            <mxRectangle width="60" height="30" as="alternateBounds" />
          </mxGeometry>
        </mxCell>
        <mxCell id="XceoHx5Ut_fv7BQ_l9Iq-100" value="Id: UniqueIdentifier" style="shape=partialRectangle;connectable=0;fillColor=none;top=0;left=0;bottom=0;right=0;align=left;spacingLeft=6;fontStyle=5;overflow=hidden;html=1;whiteSpace=wrap;" vertex="1" parent="XceoHx5Ut_fv7BQ_l9Iq-98">
          <mxGeometry x="60" width="180" height="30" as="geometry">
            <mxRectangle width="180" height="30" as="alternateBounds" />
          </mxGeometry>
        </mxCell>
        <mxCell id="XceoHx5Ut_fv7BQ_l9Iq-104" value="" style="shape=tableRow;horizontal=0;startSize=0;swimlaneHead=0;swimlaneBody=0;fillColor=none;collapsible=0;dropTarget=0;points=[[0,0.5],[1,0.5]];portConstraint=eastwest;top=0;left=0;right=0;bottom=0;html=1;" vertex="1" parent="XceoHx5Ut_fv7BQ_l9Iq-97">
          <mxGeometry y="60" width="240" height="30" as="geometry" />
        </mxCell>
        <mxCell id="XceoHx5Ut_fv7BQ_l9Iq-105" value="" style="shape=partialRectangle;connectable=0;fillColor=none;top=0;left=0;bottom=0;right=0;editable=1;overflow=hidden;html=1;whiteSpace=wrap;" vertex="1" parent="XceoHx5Ut_fv7BQ_l9Iq-104">
          <mxGeometry width="60" height="30" as="geometry">
            <mxRectangle width="60" height="30" as="alternateBounds" />
          </mxGeometry>
        </mxCell>
        <mxCell id="XceoHx5Ut_fv7BQ_l9Iq-106" value="Cidade: Varchar(256)" style="shape=partialRectangle;connectable=0;fillColor=none;top=0;left=0;bottom=0;right=0;align=left;spacingLeft=6;overflow=hidden;html=1;whiteSpace=wrap;" vertex="1" parent="XceoHx5Ut_fv7BQ_l9Iq-104">
          <mxGeometry x="60" width="180" height="30" as="geometry">
            <mxRectangle width="180" height="30" as="alternateBounds" />
          </mxGeometry>
        </mxCell>
        <mxCell id="XceoHx5Ut_fv7BQ_l9Iq-107" value="" style="shape=tableRow;horizontal=0;startSize=0;swimlaneHead=0;swimlaneBody=0;fillColor=none;collapsible=0;dropTarget=0;points=[[0,0.5],[1,0.5]];portConstraint=eastwest;top=0;left=0;right=0;bottom=0;html=1;" vertex="1" parent="XceoHx5Ut_fv7BQ_l9Iq-97">
          <mxGeometry y="90" width="240" height="30" as="geometry" />
        </mxCell>
        <mxCell id="XceoHx5Ut_fv7BQ_l9Iq-108" value="" style="shape=partialRectangle;connectable=0;fillColor=none;top=0;left=0;bottom=0;right=0;editable=1;overflow=hidden;html=1;whiteSpace=wrap;" vertex="1" parent="XceoHx5Ut_fv7BQ_l9Iq-107">
          <mxGeometry width="60" height="30" as="geometry">
            <mxRectangle width="60" height="30" as="alternateBounds" />
          </mxGeometry>
        </mxCell>
        <mxCell id="XceoHx5Ut_fv7BQ_l9Iq-109" value="Bairro: Varchar(256)" style="shape=partialRectangle;connectable=0;fillColor=none;top=0;left=0;bottom=0;right=0;align=left;spacingLeft=6;overflow=hidden;html=1;whiteSpace=wrap;" vertex="1" parent="XceoHx5Ut_fv7BQ_l9Iq-107">
          <mxGeometry x="60" width="180" height="30" as="geometry">
            <mxRectangle width="180" height="30" as="alternateBounds" />
          </mxGeometry>
        </mxCell>
        <mxCell id="XceoHx5Ut_fv7BQ_l9Iq-111" style="shape=tableRow;horizontal=0;startSize=0;swimlaneHead=0;swimlaneBody=0;fillColor=none;collapsible=0;dropTarget=0;points=[[0,0.5],[1,0.5]];portConstraint=eastwest;top=0;left=0;right=0;bottom=0;html=1;" vertex="1" parent="XceoHx5Ut_fv7BQ_l9Iq-97">
          <mxGeometry y="120" width="240" height="30" as="geometry" />
        </mxCell>
        <mxCell id="XceoHx5Ut_fv7BQ_l9Iq-112" style="shape=partialRectangle;connectable=0;fillColor=none;top=0;left=0;bottom=0;right=0;editable=1;overflow=hidden;html=1;whiteSpace=wrap;" vertex="1" parent="XceoHx5Ut_fv7BQ_l9Iq-111">
          <mxGeometry width="60" height="30" as="geometry">
            <mxRectangle width="60" height="30" as="alternateBounds" />
          </mxGeometry>
        </mxCell>
        <mxCell id="XceoHx5Ut_fv7BQ_l9Iq-113" value="Logradouro: Varchar(256)" style="shape=partialRectangle;connectable=0;fillColor=none;top=0;left=0;bottom=0;right=0;align=left;spacingLeft=6;overflow=hidden;html=1;whiteSpace=wrap;" vertex="1" parent="XceoHx5Ut_fv7BQ_l9Iq-111">
          <mxGeometry x="60" width="180" height="30" as="geometry">
            <mxRectangle width="180" height="30" as="alternateBounds" />
          </mxGeometry>
        </mxCell>
        <mxCell id="XceoHx5Ut_fv7BQ_l9Iq-117" style="shape=tableRow;horizontal=0;startSize=0;swimlaneHead=0;swimlaneBody=0;fillColor=none;collapsible=0;dropTarget=0;points=[[0,0.5],[1,0.5]];portConstraint=eastwest;top=0;left=0;right=0;bottom=0;html=1;" vertex="1" parent="XceoHx5Ut_fv7BQ_l9Iq-97">
          <mxGeometry y="150" width="240" height="30" as="geometry" />
        </mxCell>
        <mxCell id="XceoHx5Ut_fv7BQ_l9Iq-118" style="shape=partialRectangle;connectable=0;fillColor=none;top=0;left=0;bottom=0;right=0;editable=1;overflow=hidden;html=1;whiteSpace=wrap;" vertex="1" parent="XceoHx5Ut_fv7BQ_l9Iq-117">
          <mxGeometry width="60" height="30" as="geometry">
            <mxRectangle width="60" height="30" as="alternateBounds" />
          </mxGeometry>
        </mxCell>
        <mxCell id="XceoHx5Ut_fv7BQ_l9Iq-119" value="Numerou: Varchar(256)" style="shape=partialRectangle;connectable=0;fillColor=none;top=0;left=0;bottom=0;right=0;align=left;spacingLeft=6;overflow=hidden;html=1;whiteSpace=wrap;" vertex="1" parent="XceoHx5Ut_fv7BQ_l9Iq-117">
          <mxGeometry x="60" width="180" height="30" as="geometry">
            <mxRectangle width="180" height="30" as="alternateBounds" />
          </mxGeometry>
        </mxCell>
        <mxCell id="XceoHx5Ut_fv7BQ_l9Iq-110" value="" style="line;strokeWidth=1;rotatable=0;dashed=0;labelPosition=right;align=left;verticalAlign=middle;spacingTop=0;spacingLeft=6;points=[];portConstraint=eastwest;container=1;" vertex="1" parent="XceoHx5Ut_fv7BQ_l9Iq-150">
          <mxGeometry y="55" width="240" height="10" as="geometry" />
        </mxCell>
        <mxCell id="XceoHx5Ut_fv7BQ_l9Iq-167" value="Usuario" style="shape=table;startSize=30;container=1;collapsible=1;childLayout=tableLayout;fixedRows=1;rowLines=0;fontStyle=1;align=center;resizeLast=1;html=1;whiteSpace=wrap;" vertex="1" parent="1">
          <mxGeometry x="400" y="880" width="240" height="240" as="geometry" />
        </mxCell>
        <mxCell id="XceoHx5Ut_fv7BQ_l9Iq-168" value="" style="shape=tableRow;horizontal=0;startSize=0;swimlaneHead=0;swimlaneBody=0;fillColor=none;collapsible=0;dropTarget=0;points=[[0,0.5],[1,0.5]];portConstraint=eastwest;top=0;left=0;right=0;bottom=0;html=1;" vertex="1" parent="XceoHx5Ut_fv7BQ_l9Iq-167">
          <mxGeometry y="30" width="240" height="30" as="geometry" />
        </mxCell>
        <mxCell id="XceoHx5Ut_fv7BQ_l9Iq-169" value="PK" style="shape=partialRectangle;connectable=0;fillColor=none;top=0;left=0;bottom=0;right=0;fontStyle=1;overflow=hidden;html=1;whiteSpace=wrap;" vertex="1" parent="XceoHx5Ut_fv7BQ_l9Iq-168">
          <mxGeometry width="60" height="30" as="geometry">
            <mxRectangle width="60" height="30" as="alternateBounds" />
          </mxGeometry>
        </mxCell>
        <mxCell id="XceoHx5Ut_fv7BQ_l9Iq-170" value="Id: UniqueIdentifier" style="shape=partialRectangle;connectable=0;fillColor=none;top=0;left=0;bottom=0;right=0;align=left;spacingLeft=6;fontStyle=5;overflow=hidden;html=1;whiteSpace=wrap;" vertex="1" parent="XceoHx5Ut_fv7BQ_l9Iq-168">
          <mxGeometry x="60" width="180" height="30" as="geometry">
            <mxRectangle width="180" height="30" as="alternateBounds" />
          </mxGeometry>
        </mxCell>
        <mxCell id="XceoHx5Ut_fv7BQ_l9Iq-243" style="shape=tableRow;horizontal=0;startSize=0;swimlaneHead=0;swimlaneBody=0;fillColor=none;collapsible=0;dropTarget=0;points=[[0,0.5],[1,0.5]];portConstraint=eastwest;top=0;left=0;right=0;bottom=0;html=1;" vertex="1" parent="XceoHx5Ut_fv7BQ_l9Iq-167">
          <mxGeometry y="60" width="240" height="30" as="geometry" />
        </mxCell>
        <mxCell id="XceoHx5Ut_fv7BQ_l9Iq-244" value="FK1" style="shape=partialRectangle;connectable=0;fillColor=none;top=0;left=0;bottom=0;right=0;fontStyle=1;overflow=hidden;html=1;whiteSpace=wrap;" vertex="1" parent="XceoHx5Ut_fv7BQ_l9Iq-243">
          <mxGeometry width="60" height="30" as="geometry">
            <mxRectangle width="60" height="30" as="alternateBounds" />
          </mxGeometry>
        </mxCell>
        <mxCell id="XceoHx5Ut_fv7BQ_l9Iq-245" value="IdPedido: UniqueIdentifier" style="shape=partialRectangle;connectable=0;fillColor=none;top=0;left=0;bottom=0;right=0;align=left;spacingLeft=6;fontStyle=5;overflow=hidden;html=1;whiteSpace=wrap;" vertex="1" parent="XceoHx5Ut_fv7BQ_l9Iq-243">
          <mxGeometry x="60" width="180" height="30" as="geometry">
            <mxRectangle width="180" height="30" as="alternateBounds" />
          </mxGeometry>
        </mxCell>
        <mxCell id="XceoHx5Ut_fv7BQ_l9Iq-171" value="" style="shape=tableRow;horizontal=0;startSize=0;swimlaneHead=0;swimlaneBody=0;fillColor=none;collapsible=0;dropTarget=0;points=[[0,0.5],[1,0.5]];portConstraint=eastwest;top=0;left=0;right=0;bottom=1;html=1;" vertex="1" parent="XceoHx5Ut_fv7BQ_l9Iq-167">
          <mxGeometry y="90" width="240" height="30" as="geometry" />
        </mxCell>
        <mxCell id="XceoHx5Ut_fv7BQ_l9Iq-172" value="FK2" style="shape=partialRectangle;connectable=0;fillColor=none;top=0;left=0;bottom=0;right=0;fontStyle=1;overflow=hidden;html=1;whiteSpace=wrap;" vertex="1" parent="XceoHx5Ut_fv7BQ_l9Iq-171">
          <mxGeometry width="60" height="30" as="geometry">
            <mxRectangle width="60" height="30" as="alternateBounds" />
          </mxGeometry>
        </mxCell>
        <mxCell id="XceoHx5Ut_fv7BQ_l9Iq-173" value="IdEndereco: UniqueIdentifier" style="shape=partialRectangle;connectable=0;fillColor=none;top=0;left=0;bottom=0;right=0;align=left;spacingLeft=6;fontStyle=5;overflow=hidden;html=1;whiteSpace=wrap;" vertex="1" parent="XceoHx5Ut_fv7BQ_l9Iq-171">
          <mxGeometry x="60" width="180" height="30" as="geometry">
            <mxRectangle width="180" height="30" as="alternateBounds" />
          </mxGeometry>
        </mxCell>
        <mxCell id="XceoHx5Ut_fv7BQ_l9Iq-174" value="" style="shape=tableRow;horizontal=0;startSize=0;swimlaneHead=0;swimlaneBody=0;fillColor=none;collapsible=0;dropTarget=0;points=[[0,0.5],[1,0.5]];portConstraint=eastwest;top=0;left=0;right=0;bottom=0;html=1;" vertex="1" parent="XceoHx5Ut_fv7BQ_l9Iq-167">
          <mxGeometry y="120" width="240" height="30" as="geometry" />
        </mxCell>
        <mxCell id="XceoHx5Ut_fv7BQ_l9Iq-175" value="" style="shape=partialRectangle;connectable=0;fillColor=none;top=0;left=0;bottom=0;right=0;editable=1;overflow=hidden;html=1;whiteSpace=wrap;" vertex="1" parent="XceoHx5Ut_fv7BQ_l9Iq-174">
          <mxGeometry width="60" height="30" as="geometry">
            <mxRectangle width="60" height="30" as="alternateBounds" />
          </mxGeometry>
        </mxCell>
        <mxCell id="XceoHx5Ut_fv7BQ_l9Iq-176" value="Nome: Varchar(256)" style="shape=partialRectangle;connectable=0;fillColor=none;top=0;left=0;bottom=0;right=0;align=left;spacingLeft=6;overflow=hidden;html=1;whiteSpace=wrap;" vertex="1" parent="XceoHx5Ut_fv7BQ_l9Iq-174">
          <mxGeometry x="60" width="180" height="30" as="geometry">
            <mxRectangle width="180" height="30" as="alternateBounds" />
          </mxGeometry>
        </mxCell>
        <mxCell id="XceoHx5Ut_fv7BQ_l9Iq-177" value="" style="shape=tableRow;horizontal=0;startSize=0;swimlaneHead=0;swimlaneBody=0;fillColor=none;collapsible=0;dropTarget=0;points=[[0,0.5],[1,0.5]];portConstraint=eastwest;top=0;left=0;right=0;bottom=0;html=1;" vertex="1" parent="XceoHx5Ut_fv7BQ_l9Iq-167">
          <mxGeometry y="150" width="240" height="30" as="geometry" />
        </mxCell>
        <mxCell id="XceoHx5Ut_fv7BQ_l9Iq-178" value="" style="shape=partialRectangle;connectable=0;fillColor=none;top=0;left=0;bottom=0;right=0;editable=1;overflow=hidden;html=1;whiteSpace=wrap;" vertex="1" parent="XceoHx5Ut_fv7BQ_l9Iq-177">
          <mxGeometry width="60" height="30" as="geometry">
            <mxRectangle width="60" height="30" as="alternateBounds" />
          </mxGeometry>
        </mxCell>
        <mxCell id="XceoHx5Ut_fv7BQ_l9Iq-179" value="Email: Varchar(256)" style="shape=partialRectangle;connectable=0;fillColor=none;top=0;left=0;bottom=0;right=0;align=left;spacingLeft=6;overflow=hidden;html=1;whiteSpace=wrap;" vertex="1" parent="XceoHx5Ut_fv7BQ_l9Iq-177">
          <mxGeometry x="60" width="180" height="30" as="geometry">
            <mxRectangle width="180" height="30" as="alternateBounds" />
          </mxGeometry>
        </mxCell>
        <mxCell id="XceoHx5Ut_fv7BQ_l9Iq-183" style="shape=tableRow;horizontal=0;startSize=0;swimlaneHead=0;swimlaneBody=0;fillColor=none;collapsible=0;dropTarget=0;points=[[0,0.5],[1,0.5]];portConstraint=eastwest;top=0;left=0;right=0;bottom=0;html=1;" vertex="1" parent="XceoHx5Ut_fv7BQ_l9Iq-167">
          <mxGeometry y="180" width="240" height="30" as="geometry" />
        </mxCell>
        <mxCell id="XceoHx5Ut_fv7BQ_l9Iq-184" style="shape=partialRectangle;connectable=0;fillColor=none;top=0;left=0;bottom=0;right=0;editable=1;overflow=hidden;html=1;whiteSpace=wrap;" vertex="1" parent="XceoHx5Ut_fv7BQ_l9Iq-183">
          <mxGeometry width="60" height="30" as="geometry">
            <mxRectangle width="60" height="30" as="alternateBounds" />
          </mxGeometry>
        </mxCell>
        <mxCell id="XceoHx5Ut_fv7BQ_l9Iq-185" value="Senha: Varchar(256)" style="shape=partialRectangle;connectable=0;fillColor=none;top=0;left=0;bottom=0;right=0;align=left;spacingLeft=6;overflow=hidden;html=1;whiteSpace=wrap;" vertex="1" parent="XceoHx5Ut_fv7BQ_l9Iq-183">
          <mxGeometry x="60" width="180" height="30" as="geometry">
            <mxRectangle width="180" height="30" as="alternateBounds" />
          </mxGeometry>
        </mxCell>
        <mxCell id="XceoHx5Ut_fv7BQ_l9Iq-186" style="shape=tableRow;horizontal=0;startSize=0;swimlaneHead=0;swimlaneBody=0;fillColor=none;collapsible=0;dropTarget=0;points=[[0,0.5],[1,0.5]];portConstraint=eastwest;top=0;left=0;right=0;bottom=0;html=1;" vertex="1" parent="XceoHx5Ut_fv7BQ_l9Iq-167">
          <mxGeometry y="210" width="240" height="30" as="geometry" />
        </mxCell>
        <mxCell id="XceoHx5Ut_fv7BQ_l9Iq-187" style="shape=partialRectangle;connectable=0;fillColor=none;top=0;left=0;bottom=0;right=0;editable=1;overflow=hidden;html=1;whiteSpace=wrap;" vertex="1" parent="XceoHx5Ut_fv7BQ_l9Iq-186">
          <mxGeometry width="60" height="30" as="geometry">
            <mxRectangle width="60" height="30" as="alternateBounds" />
          </mxGeometry>
        </mxCell>
        <mxCell id="XceoHx5Ut_fv7BQ_l9Iq-188" value="Telefone: Varchar(256)" style="shape=partialRectangle;connectable=0;fillColor=none;top=0;left=0;bottom=0;right=0;align=left;spacingLeft=6;overflow=hidden;html=1;whiteSpace=wrap;" vertex="1" parent="XceoHx5Ut_fv7BQ_l9Iq-186">
          <mxGeometry x="60" width="180" height="30" as="geometry">
            <mxRectangle width="180" height="30" as="alternateBounds" />
          </mxGeometry>
        </mxCell>
        <mxCell id="XceoHx5Ut_fv7BQ_l9Iq-87" style="edgeStyle=orthogonalEdgeStyle;rounded=0;orthogonalLoop=1;jettySize=auto;html=1;exitX=1;exitY=0.5;exitDx=0;exitDy=0;endArrow=diamondThin;endFill=0;strokeWidth=1;endSize=9;entryX=0.5;entryY=0;entryDx=0;entryDy=0;" edge="1" parent="1" source="XceoHx5Ut_fv7BQ_l9Iq-45" target="XceoHx5Ut_fv7BQ_l9Iq-68">
          <mxGeometry relative="1" as="geometry">
            <mxPoint x="1200" y="492" as="targetPoint" />
          </mxGeometry>
        </mxCell>
        <mxCell id="XceoHx5Ut_fv7BQ_l9Iq-182" value="1" style="text;html=1;align=center;verticalAlign=middle;resizable=0;points=[];autosize=1;strokeColor=none;fillColor=none;" vertex="1" parent="1">
          <mxGeometry x="900" y="370" width="30" height="30" as="geometry" />
        </mxCell>
        <mxCell id="XceoHx5Ut_fv7BQ_l9Iq-208" value="Restaurante" style="shape=table;startSize=30;container=1;collapsible=1;childLayout=tableLayout;fixedRows=1;rowLines=0;fontStyle=1;align=center;resizeLast=1;html=1;whiteSpace=wrap;" vertex="1" parent="1">
          <mxGeometry x="719" y="880" width="241" height="120" as="geometry" />
        </mxCell>
        <mxCell id="XceoHx5Ut_fv7BQ_l9Iq-209" value="" style="shape=tableRow;horizontal=0;startSize=0;swimlaneHead=0;swimlaneBody=0;fillColor=none;collapsible=0;dropTarget=0;points=[[0,0.5],[1,0.5]];portConstraint=eastwest;top=0;left=0;right=0;bottom=0;html=1;" vertex="1" parent="XceoHx5Ut_fv7BQ_l9Iq-208">
          <mxGeometry y="30" width="241" height="30" as="geometry" />
        </mxCell>
        <mxCell id="XceoHx5Ut_fv7BQ_l9Iq-210" value="PK" style="shape=partialRectangle;connectable=0;fillColor=none;top=0;left=0;bottom=0;right=0;fontStyle=1;overflow=hidden;html=1;whiteSpace=wrap;" vertex="1" parent="XceoHx5Ut_fv7BQ_l9Iq-209">
          <mxGeometry width="60" height="30" as="geometry">
            <mxRectangle width="60" height="30" as="alternateBounds" />
          </mxGeometry>
        </mxCell>
        <mxCell id="XceoHx5Ut_fv7BQ_l9Iq-211" value="Id: UniqueIdentifier" style="shape=partialRectangle;connectable=0;fillColor=none;top=0;left=0;bottom=0;right=0;align=left;spacingLeft=6;fontStyle=5;overflow=hidden;html=1;whiteSpace=wrap;" vertex="1" parent="XceoHx5Ut_fv7BQ_l9Iq-209">
          <mxGeometry x="60" width="181" height="30" as="geometry">
            <mxRectangle width="181" height="30" as="alternateBounds" />
          </mxGeometry>
        </mxCell>
        <mxCell id="XceoHx5Ut_fv7BQ_l9Iq-212" value="" style="shape=tableRow;horizontal=0;startSize=0;swimlaneHead=0;swimlaneBody=0;fillColor=none;collapsible=0;dropTarget=0;points=[[0,0.5],[1,0.5]];portConstraint=eastwest;top=0;left=0;right=0;bottom=1;html=1;" vertex="1" parent="XceoHx5Ut_fv7BQ_l9Iq-208">
          <mxGeometry y="60" width="241" height="30" as="geometry" />
        </mxCell>
        <mxCell id="XceoHx5Ut_fv7BQ_l9Iq-213" value="FK" style="shape=partialRectangle;connectable=0;fillColor=none;top=0;left=0;bottom=0;right=0;fontStyle=1;overflow=hidden;html=1;whiteSpace=wrap;" vertex="1" parent="XceoHx5Ut_fv7BQ_l9Iq-212">
          <mxGeometry width="60" height="30" as="geometry">
            <mxRectangle width="60" height="30" as="alternateBounds" />
          </mxGeometry>
        </mxCell>
        <mxCell id="XceoHx5Ut_fv7BQ_l9Iq-214" value="IdUsuario: UniqueIdentifier" style="shape=partialRectangle;connectable=0;fillColor=none;top=0;left=0;bottom=0;right=0;align=left;spacingLeft=6;fontStyle=5;overflow=hidden;html=1;whiteSpace=wrap;" vertex="1" parent="XceoHx5Ut_fv7BQ_l9Iq-212">
          <mxGeometry x="60" width="181" height="30" as="geometry">
            <mxRectangle width="181" height="30" as="alternateBounds" />
          </mxGeometry>
        </mxCell>
        <mxCell id="XceoHx5Ut_fv7BQ_l9Iq-215" value="" style="shape=tableRow;horizontal=0;startSize=0;swimlaneHead=0;swimlaneBody=0;fillColor=none;collapsible=0;dropTarget=0;points=[[0,0.5],[1,0.5]];portConstraint=eastwest;top=0;left=0;right=0;bottom=0;html=1;" vertex="1" parent="XceoHx5Ut_fv7BQ_l9Iq-208">
          <mxGeometry y="90" width="241" height="30" as="geometry" />
        </mxCell>
        <mxCell id="XceoHx5Ut_fv7BQ_l9Iq-216" value="" style="shape=partialRectangle;connectable=0;fillColor=none;top=0;left=0;bottom=0;right=0;editable=1;overflow=hidden;html=1;whiteSpace=wrap;" vertex="1" parent="XceoHx5Ut_fv7BQ_l9Iq-215">
          <mxGeometry width="60" height="30" as="geometry">
            <mxRectangle width="60" height="30" as="alternateBounds" />
          </mxGeometry>
        </mxCell>
        <mxCell id="XceoHx5Ut_fv7BQ_l9Iq-217" value="TipoComida: Varchar(256)" style="shape=partialRectangle;connectable=0;fillColor=none;top=0;left=0;bottom=0;right=0;align=left;spacingLeft=6;overflow=hidden;html=1;whiteSpace=wrap;" vertex="1" parent="XceoHx5Ut_fv7BQ_l9Iq-215">
          <mxGeometry x="60" width="181" height="30" as="geometry">
            <mxRectangle width="181" height="30" as="alternateBounds" />
          </mxGeometry>
        </mxCell>
        <mxCell id="XceoHx5Ut_fv7BQ_l9Iq-221" value="Cliente" style="shape=table;startSize=30;container=1;collapsible=1;childLayout=tableLayout;fixedRows=1;rowLines=0;fontStyle=1;align=center;resizeLast=1;html=1;whiteSpace=wrap;" vertex="1" parent="1">
          <mxGeometry x="719" y="1040" width="240" height="90" as="geometry" />
        </mxCell>
        <mxCell id="XceoHx5Ut_fv7BQ_l9Iq-222" value="" style="shape=tableRow;horizontal=0;startSize=0;swimlaneHead=0;swimlaneBody=0;fillColor=none;collapsible=0;dropTarget=0;points=[[0,0.5],[1,0.5]];portConstraint=eastwest;top=0;left=0;right=0;bottom=0;html=1;" vertex="1" parent="XceoHx5Ut_fv7BQ_l9Iq-221">
          <mxGeometry y="30" width="240" height="30" as="geometry" />
        </mxCell>
        <mxCell id="XceoHx5Ut_fv7BQ_l9Iq-223" value="PK" style="shape=partialRectangle;connectable=0;fillColor=none;top=0;left=0;bottom=0;right=0;fontStyle=1;overflow=hidden;html=1;whiteSpace=wrap;" vertex="1" parent="XceoHx5Ut_fv7BQ_l9Iq-222">
          <mxGeometry width="60" height="30" as="geometry">
            <mxRectangle width="60" height="30" as="alternateBounds" />
          </mxGeometry>
        </mxCell>
        <mxCell id="XceoHx5Ut_fv7BQ_l9Iq-224" value="Id: UniqueIdentifier" style="shape=partialRectangle;connectable=0;fillColor=none;top=0;left=0;bottom=0;right=0;align=left;spacingLeft=6;fontStyle=5;overflow=hidden;html=1;whiteSpace=wrap;" vertex="1" parent="XceoHx5Ut_fv7BQ_l9Iq-222">
          <mxGeometry x="60" width="180" height="30" as="geometry">
            <mxRectangle width="180" height="30" as="alternateBounds" />
          </mxGeometry>
        </mxCell>
        <mxCell id="XceoHx5Ut_fv7BQ_l9Iq-225" value="" style="shape=tableRow;horizontal=0;startSize=0;swimlaneHead=0;swimlaneBody=0;fillColor=none;collapsible=0;dropTarget=0;points=[[0,0.5],[1,0.5]];portConstraint=eastwest;top=0;left=0;right=0;bottom=1;html=1;" vertex="1" parent="XceoHx5Ut_fv7BQ_l9Iq-221">
          <mxGeometry y="60" width="240" height="30" as="geometry" />
        </mxCell>
        <mxCell id="XceoHx5Ut_fv7BQ_l9Iq-226" value="FK" style="shape=partialRectangle;connectable=0;fillColor=none;top=0;left=0;bottom=0;right=0;fontStyle=1;overflow=hidden;html=1;whiteSpace=wrap;" vertex="1" parent="XceoHx5Ut_fv7BQ_l9Iq-225">
          <mxGeometry width="60" height="30" as="geometry">
            <mxRectangle width="60" height="30" as="alternateBounds" />
          </mxGeometry>
        </mxCell>
        <mxCell id="XceoHx5Ut_fv7BQ_l9Iq-227" value="IdUsuario: UniqueIdentifier" style="shape=partialRectangle;connectable=0;fillColor=none;top=0;left=0;bottom=0;right=0;align=left;spacingLeft=6;fontStyle=5;overflow=hidden;html=1;whiteSpace=wrap;" vertex="1" parent="XceoHx5Ut_fv7BQ_l9Iq-225">
          <mxGeometry x="60" width="180" height="30" as="geometry">
            <mxRectangle width="180" height="30" as="alternateBounds" />
          </mxGeometry>
        </mxCell>
        <mxCell id="XceoHx5Ut_fv7BQ_l9Iq-259" value="Pedido" style="shape=table;startSize=30;container=1;collapsible=1;childLayout=tableLayout;fixedRows=1;rowLines=0;fontStyle=1;align=center;resizeLast=1;html=1;" vertex="1" parent="1">
          <mxGeometry x="81" y="680" width="239" height="150" as="geometry" />
        </mxCell>
        <mxCell id="XceoHx5Ut_fv7BQ_l9Iq-260" value="" style="shape=tableRow;horizontal=0;startSize=0;swimlaneHead=0;swimlaneBody=0;fillColor=none;collapsible=0;dropTarget=0;points=[[0,0.5],[1,0.5]];portConstraint=eastwest;top=0;left=0;right=0;bottom=1;" vertex="1" parent="XceoHx5Ut_fv7BQ_l9Iq-259">
          <mxGeometry y="30" width="239" height="30" as="geometry" />
        </mxCell>
        <mxCell id="XceoHx5Ut_fv7BQ_l9Iq-261" value="PK" style="shape=partialRectangle;connectable=0;fillColor=none;top=0;left=0;bottom=0;right=0;fontStyle=1;overflow=hidden;whiteSpace=wrap;html=1;" vertex="1" parent="XceoHx5Ut_fv7BQ_l9Iq-260">
          <mxGeometry width="30" height="30" as="geometry">
            <mxRectangle width="30" height="30" as="alternateBounds" />
          </mxGeometry>
        </mxCell>
        <mxCell id="XceoHx5Ut_fv7BQ_l9Iq-262" value="Id: UniqueIdentifier" style="shape=partialRectangle;connectable=0;fillColor=none;top=0;left=0;bottom=0;right=0;align=left;spacingLeft=6;fontStyle=5;overflow=hidden;whiteSpace=wrap;html=1;" vertex="1" parent="XceoHx5Ut_fv7BQ_l9Iq-260">
          <mxGeometry x="30" width="209" height="30" as="geometry">
            <mxRectangle width="209" height="30" as="alternateBounds" />
          </mxGeometry>
        </mxCell>
        <mxCell id="XceoHx5Ut_fv7BQ_l9Iq-263" value="" style="shape=tableRow;horizontal=0;startSize=0;swimlaneHead=0;swimlaneBody=0;fillColor=none;collapsible=0;dropTarget=0;points=[[0,0.5],[1,0.5]];portConstraint=eastwest;top=0;left=0;right=0;bottom=0;" vertex="1" parent="XceoHx5Ut_fv7BQ_l9Iq-259">
          <mxGeometry y="60" width="239" height="30" as="geometry" />
        </mxCell>
        <mxCell id="XceoHx5Ut_fv7BQ_l9Iq-264" value="" style="shape=partialRectangle;connectable=0;fillColor=none;top=0;left=0;bottom=0;right=0;editable=1;overflow=hidden;whiteSpace=wrap;html=1;" vertex="1" parent="XceoHx5Ut_fv7BQ_l9Iq-263">
          <mxGeometry width="30" height="30" as="geometry">
            <mxRectangle width="30" height="30" as="alternateBounds" />
          </mxGeometry>
        </mxCell>
        <mxCell id="XceoHx5Ut_fv7BQ_l9Iq-265" value="NumeroPedido: int" style="shape=partialRectangle;connectable=0;fillColor=none;top=0;left=0;bottom=0;right=0;align=left;spacingLeft=6;overflow=hidden;whiteSpace=wrap;html=1;" vertex="1" parent="XceoHx5Ut_fv7BQ_l9Iq-263">
          <mxGeometry x="30" width="209" height="30" as="geometry">
            <mxRectangle width="209" height="30" as="alternateBounds" />
          </mxGeometry>
        </mxCell>
        <mxCell id="XceoHx5Ut_fv7BQ_l9Iq-266" value="" style="shape=tableRow;horizontal=0;startSize=0;swimlaneHead=0;swimlaneBody=0;fillColor=none;collapsible=0;dropTarget=0;points=[[0,0.5],[1,0.5]];portConstraint=eastwest;top=0;left=0;right=0;bottom=0;" vertex="1" parent="XceoHx5Ut_fv7BQ_l9Iq-259">
          <mxGeometry y="90" width="239" height="30" as="geometry" />
        </mxCell>
        <mxCell id="XceoHx5Ut_fv7BQ_l9Iq-267" value="" style="shape=partialRectangle;connectable=0;fillColor=none;top=0;left=0;bottom=0;right=0;editable=1;overflow=hidden;whiteSpace=wrap;html=1;" vertex="1" parent="XceoHx5Ut_fv7BQ_l9Iq-266">
          <mxGeometry width="30" height="30" as="geometry">
            <mxRectangle width="30" height="30" as="alternateBounds" />
          </mxGeometry>
        </mxCell>
        <mxCell id="XceoHx5Ut_fv7BQ_l9Iq-268" value="NomePedido: Varchar(256)" style="shape=partialRectangle;connectable=0;fillColor=none;top=0;left=0;bottom=0;right=0;align=left;spacingLeft=6;overflow=hidden;whiteSpace=wrap;html=1;" vertex="1" parent="XceoHx5Ut_fv7BQ_l9Iq-266">
          <mxGeometry x="30" width="209" height="30" as="geometry">
            <mxRectangle width="209" height="30" as="alternateBounds" />
          </mxGeometry>
        </mxCell>
        <mxCell id="XceoHx5Ut_fv7BQ_l9Iq-269" value="" style="shape=tableRow;horizontal=0;startSize=0;swimlaneHead=0;swimlaneBody=0;fillColor=none;collapsible=0;dropTarget=0;points=[[0,0.5],[1,0.5]];portConstraint=eastwest;top=0;left=0;right=0;bottom=0;" vertex="1" parent="XceoHx5Ut_fv7BQ_l9Iq-259">
          <mxGeometry y="120" width="239" height="30" as="geometry" />
        </mxCell>
        <mxCell id="XceoHx5Ut_fv7BQ_l9Iq-270" value="" style="shape=partialRectangle;connectable=0;fillColor=none;top=0;left=0;bottom=0;right=0;editable=1;overflow=hidden;whiteSpace=wrap;html=1;" vertex="1" parent="XceoHx5Ut_fv7BQ_l9Iq-269">
          <mxGeometry width="30" height="30" as="geometry">
            <mxRectangle width="30" height="30" as="alternateBounds" />
          </mxGeometry>
        </mxCell>
        <mxCell id="XceoHx5Ut_fv7BQ_l9Iq-271" value="DataPedido: DateTime()" style="shape=partialRectangle;connectable=0;fillColor=none;top=0;left=0;bottom=0;right=0;align=left;spacingLeft=6;overflow=hidden;whiteSpace=wrap;html=1;" vertex="1" parent="XceoHx5Ut_fv7BQ_l9Iq-269">
          <mxGeometry x="30" width="209" height="30" as="geometry">
            <mxRectangle width="209" height="30" as="alternateBounds" />
          </mxGeometry>
        </mxCell>
        <mxCell id="XceoHx5Ut_fv7BQ_l9Iq-273" value="" style="edgeStyle=entityRelationEdgeStyle;fontSize=12;html=1;endArrow=ERoneToMany;rounded=0;exitX=1;exitY=0.5;exitDx=0;exitDy=0;entryX=0;entryY=0.5;entryDx=0;entryDy=0;" edge="1" parent="1" source="XceoHx5Ut_fv7BQ_l9Iq-98" target="XceoHx5Ut_fv7BQ_l9Iq-171">
          <mxGeometry width="100" height="100" relative="1" as="geometry">
            <mxPoint x="320" y="1040" as="sourcePoint" />
            <mxPoint x="360" y="1000" as="targetPoint" />
          </mxGeometry>
        </mxCell>
        <mxCell id="XceoHx5Ut_fv7BQ_l9Iq-275" style="edgeStyle=entityRelationEdgeStyle;rounded=0;orthogonalLoop=1;jettySize=auto;html=1;entryX=0;entryY=0.5;entryDx=0;entryDy=0;exitX=1;exitY=0.5;exitDx=0;exitDy=0;endArrow=ERoneToMany;endFill=0;" edge="1" parent="1" source="XceoHx5Ut_fv7BQ_l9Iq-260" target="XceoHx5Ut_fv7BQ_l9Iq-243">
          <mxGeometry relative="1" as="geometry">
            <mxPoint x="400" y="710" as="sourcePoint" />
            <Array as="points">
              <mxPoint x="340" y="770" />
              <mxPoint x="420" y="820" />
              <mxPoint x="370" y="830" />
              <mxPoint x="370" y="830" />
            </Array>
          </mxGeometry>
        </mxCell>
        <mxCell id="XceoHx5Ut_fv7BQ_l9Iq-276" style="edgeStyle=entityRelationEdgeStyle;rounded=0;orthogonalLoop=1;jettySize=auto;html=1;entryX=0;entryY=0.5;entryDx=0;entryDy=0;endArrow=none;endFill=0;startArrow=ERoneToMany;startFill=0;" edge="1" parent="1" source="XceoHx5Ut_fv7BQ_l9Iq-168" target="XceoHx5Ut_fv7BQ_l9Iq-212">
          <mxGeometry relative="1" as="geometry" />
        </mxCell>
        <mxCell id="XceoHx5Ut_fv7BQ_l9Iq-278" style="edgeStyle=entityRelationEdgeStyle;rounded=0;orthogonalLoop=1;jettySize=auto;html=1;exitX=1;exitY=0.5;exitDx=0;exitDy=0;entryX=0;entryY=0.5;entryDx=0;entryDy=0;endArrow=ERoneToMany;endFill=0;" edge="1" parent="1" source="XceoHx5Ut_fv7BQ_l9Iq-168" target="XceoHx5Ut_fv7BQ_l9Iq-225">
          <mxGeometry relative="1" as="geometry" />
        </mxCell>
      </root>
    </mxGraphModel>
  </diagram>
</mxfile>
